<?xml version="1.0" standalone="no"?><!DOCTYPE svg PUBLIC "-//W3C//DTD SVG 1.1//EN" "http://www.w3.org/Graphics/SVG/1.1/DTD/svg11.dtd"><svg width="209.9609375" height="200" viewBox="0 0 209.9609375 200" version="1.1" xmlns="http://www.w3.org/2000/svg" xmlns:xlink="http://www.w3.org/1999/xlink"><defs><style type="text/css"><![CDATA[
@font-face { font-family: ifont; src: url("//at.alicdn.com/t/font_1442373896_4754455.eot?#iefix") format("embedded-opentype"), url("//at.alicdn.com/t/font_1442373896_4754455.woff") format("woff"), url("//at.alicdn.com/t/font_1442373896_4754455.ttf") format("truetype"), url("//at.alicdn.com/t/font_1442373896_4754455.svg#ifont") format("svg"); }

]]></style></defs><g class="transform-group"><g transform="scale(0.1953125, 0.1953125)"><path d="M756.09786 276.531312 568.096666 15.844372c-7.013951-9.938181-17.779877-15.394643-28.83455-15.81814-0.143499-0.007-0.279998-0.014-0.423497-0.014-0.355248-0.01225-0.703495-0.01225-1.051743-0.01225-0.328998 0-0.656245 0-0.985243 0.007-0.164499 0.00525-0.321998 0.01225-0.477747 0.01925-11.087923 0.430497-21.881848 5.899209-28.888799 15.85314l-188.916438 261.712433c-12.181665 17.26713-8.455941 41.362713 8.251193 53.899626 16.761384 12.531663 40.146471 8.70969 52.321137-8.557441l158.804397-220.060972 157.827904 218.89898c12.127416 17.170881 35.458254 20.992854 52.116388 8.510191C764.511802 317.799526 768.176276 293.751193 756.09786 276.531312L756.09786 276.531312zM868.602829 1016.961671c0.265998-0.190749 0.533746-0.390247 0.792744-0.587996 0.129499-0.096249 0.253748-0.199499 0.383247-0.300998 8.714939-6.863452 14.232651-17.622378 14.047152-29.797043l-0.990493-322.764259c-0.300998-21.129353-17.478879-38.445483-38.363234-38.758731-20.931605-0.286998-37.603739 16.549635-37.302741 37.678988l0.874994 271.363616L551.690529 849.475584c-19.906112-6.768953-41.023215 3.855223-47.167422 23.747335-6.145957 19.892112 5.031215 41.500962 24.916327 48.329414l305.33263 100.405553c11.51142 3.916473 23.427087 2.003736 32.621523-4.149221 0.122499-0.082249 0.239748-0.157499 0.362247-0.239748C868.034083 1017.371169 868.322831 1017.16642 868.602829 1016.961671L868.602829 1016.961671zM1073.172909 389.748526c-0.035-0.131249-0.06825-0.267748-0.108499-0.397247-0.104999-0.341248-0.206499-0.677245-0.316748-1.011493-0.103249-0.314998-0.204749-0.622996-0.314998-0.929244-0.05425-0.150499-0.110249-0.300998-0.166249-0.451497-3.832473-10.410678-12.370664-18.990868-24.006333-22.573093l-307.287366-98.792064c-20.19311-6.247457-41.959459 4.737217-48.719662 24.49983-6.733953 19.816862 4.121221 40.879716 24.316081 47.120173L974.933841 420.242065 815.522198 637.980803c-12.591163 16.836633-9.008937 40.209471 8.004444 52.198638 17.027382 11.990917 41.028465 8.039444 53.675627-8.765689L1067.047951 422.067302C1074.327901 412.31987 1076.188138 400.397202 1073.172909 389.748526L1073.172909 389.748526zM570.030402 873.222919c-6.138957-19.892112-27.261311-30.516288-47.160423-23.747335l-256.35922 84.321415 0.874994-271.363616c0.307998-21.129353-16.371136-37.965986-37.297491-37.678988-20.882605 0.314998-38.062236 17.629378-38.361484 38.758731l-0.999243 322.764259c-0.176749 12.179915 5.339213 22.947591 14.061152 29.811043 0.124249 0.096249 0.239748 0.183749 0.362247 0.279998 0.267748 0.204749 0.533746 0.402497 0.806744 0.601996 0.281748 0.204749 0.561746 0.402497 0.841744 0.594996 0.122499 0.089249 0.251998 0.171499 0.376247 0.253748 9.194436 6.145957 21.101353 8.058694 32.607524 4.142221l305.33088-100.398553C565.006187 914.723881 576.183359 893.116781 570.030402 873.222919L570.030402 873.222919zM382.296956 290.093718c-6.753203-19.762613-28.526552-30.747287-48.719662-24.49983l-307.287366 98.792064c-11.640919 3.589225-20.17211 12.162416-23.999333 22.580093-0.056 0.143499-0.110249 0.293998-0.164499 0.437497-0.110249 0.313248-0.218748 0.628246-0.321998 0.943243-0.101499 0.327248-0.204749 0.663245-0.307998 0.990493-0.04025 0.143499-0.080499 0.286998-0.122499 0.430497-3.001229 10.636426-1.140992 22.559093 6.138957 32.292526l189.845682 259.353449c12.647162 16.805133 36.648246 20.747856 53.668627 8.765689 17.022132-11.990917 20.597357-35.362004 8.011444-52.198638L99.619668 420.242065l258.368206-83.028174C378.175734 330.973434 389.037909 309.910581 382.296956 290.093718L382.296956 290.093718zM382.296956 290.093718" fill="#ea8010"></path></g></g></svg>